<svg xmlns="http://www.w3.org/2000/svg" viewBox="0 0 393.88 393.8"><defs><style>.cls-1{fill:#0069b9;opacity:0.84;}.cls-2{fill:#0096d5;}.cls-3{font-size:27.83px;font-family:HelveticaNeue-Medium, Helvetica Neue;}.cls-3,.cls-4{fill:#fff;}</style></defs><title>when_big</title><g id="Layer_2" data-name="Layer 2"><g id="Layer_1-2" data-name="Layer 1"><circle class="cls-1" cx="196.9" cy="196.9" r="196.9"/><path class="cls-2" d="M197,0c108,0,196.9,88.88,196.9,196.9S305,393.8,197,393.8"/><g id="_Group_" data-name="&lt;Group&gt;"><text class="cls-3" transform="translate(146.42 319.4)">When to <tspan x="4.34" y="33.39">call 911</tspan></text></g><path class="cls-4" d="M111.05,259.45a4.72,4.72,0,0,1-4.48-6.24l13.32-39.54a94.6,94.6,0,1,1,32.21,32.21L112.56,259.2A4.64,4.64,0,0,1,111.05,259.45ZM152.7,236a4.71,4.71,0,0,1,2.54.75,85.24,85.24,0,1,0-26.16-26.18,4.77,4.77,0,0,1,.49,4.06l-11,32.61,32.61-11A4.64,4.64,0,0,1,152.7,236Z"/><path class="cls-4" d="M196.87,198.62a4.73,4.73,0,0,1-4.73-4.73v-7.33c0-14.23,8.68-20.64,15.65-25.79,6.33-4.68,11.33-8.38,11.33-17,0-11.18-7.11-18.41-18.11-18.41-12.59,0-18.33,10.3-18.33,19.86a4.73,4.73,0,1,1-9.45,0c0-14.57,9.54-29.32,27.78-29.32,16.23,0,27.57,11.46,27.57,27.87,0,13.43-8.41,19.65-15.17,24.65-6.6,4.87-11.81,8.73-11.81,18.18v7.33A4.73,4.73,0,0,1,196.87,198.62Z"/><circle class="cls-4" cx="196.75" cy="211.98" r="4.73"/></g></g></svg>