<svg xmlns="http://www.w3.org/2000/svg" viewBox="0 0 224.24 224.24"><defs><style>.cls-1{fill:#ffcb00;}.cls-2{fill:#ffd54a;}.cls-3{fill:#fffdfd;stroke:#fff;stroke-miterlimit:10;stroke-width:2px;}</style></defs><title>notification_small</title><g id="Layer_2" data-name="Layer 2"><g id="Layer_1-2" data-name="Layer 1"><circle class="cls-1" cx="112.12" cy="112.12" r="112.12"/><path class="cls-2" d="M112.12,0c61.51,0,112.12,50.61,112.12,112.12S173.63,224.24,112.12,224.24"/><path class="cls-3" d="M112.64,61.68a56.48,56.48,0,0,0-53.71,38.38l-5.24-9.3a3.4,3.4,0,0,0-6.36,2,3.32,3.32,0,0,0,.44,1.33l9.31,16.6a3.39,3.39,0,0,0,4.49,1.38l16.55-8.46a3.39,3.39,0,0,0-2.82-6.16l-.25.13-9.83,5a49.72,49.72,0,0,1,47.42-34.15c27.55,0,49.75,22,49.75,49.06s-22.2,49.07-49.75,49.07a49.67,49.67,0,0,1-48.43-37.75,3.38,3.38,0,1,0-6.71.86,3.11,3.11,0,0,0,.16.67,56.47,56.47,0,0,0,55,43c31.16,0,56.52-25,56.52-55.83S143.8,61.68,112.64,61.68ZM113,87a3.38,3.38,0,0,0-3,3.43v27.07a3.41,3.41,0,0,0,1.26,2.65l16.92,13.53a3.39,3.39,0,1,0,4.23-5.29h0l-15.65-12.53V90.44A3.38,3.38,0,0,0,113.4,87,2.16,2.16,0,0,0,113,87Z"/></g></g></svg>