<svg xmlns="http://www.w3.org/2000/svg" viewBox="0 0 225.88 225.99"><defs><style>.cls-1{opacity:0.88;}.cls-2{fill:#7ac095;}.cls-3{fill:#5ac28f;}.cls-4{fill:#fff;stroke:#fff;stroke-miterlimit:10;}</style></defs><title>weather_small</title><g id="Layer_2" data-name="Layer 2"><g id="Layer_1-2" data-name="Layer 1"><g class="cls-1"><circle class="cls-2" cx="112.94" cy="113.05" r="112.94"/><path class="cls-2" d="M112.94.11C51,.11,0,51.09,0,113.05S51,226,112.94,226"/></g><path class="cls-3" d="M112.94,0C51,0,0,51,0,112.94S51,225.88,112.94,225.88"/><path class="cls-4" d="M75,174c-1.77-1.1-2.06-2.56-1.54-4.56,2.16-8.25,4.18-16.54,6.26-24.81,0-.22.08-.44.15-.65A2.7,2.7,0,0,1,83,141.85a2.65,2.65,0,0,1,2,3.38c-2.19,8.81-4.38,17.63-6.68,26.42-.24.88-1.27,1.56-1.93,2.33Z"/><path class="cls-4" d="M124.31,174c-2.14-1.29-2.4-1.91-1.78-4.4q3.1-12.42,6.2-24.84c.07-.27.15-.54.23-.8a2.66,2.66,0,0,1,3.13-2.08A2.56,2.56,0,0,1,134,145.1c-.53,2.51-1.2,5-1.82,7.48-1.51,6.06-3.07,12.11-4.53,18.19a4.17,4.17,0,0,1-2.33,3.21Z"/><path class="cls-4" d="M148.81,174c-2.12-1.32-2.35-1.9-1.72-4.42q3.07-12.42,6.17-24.85c.06-.21.14-.42.2-.64.5-1.67,1.77-2.55,3.2-2.2a2.62,2.62,0,0,1,1.84,3.42c-.64,2.89-1.38,5.75-2.1,8.62-1.41,5.63-2.88,11.24-4.22,16.88a4.1,4.1,0,0,1-2.37,3.19Z"/><path class="cls-4" d="M99.81,174c-2.17-1.25-2.45-1.91-1.84-4.37q3.14-12.5,6.25-25c.34-1.39.87-2.58,2.47-2.78,2-.25,3.24,1.5,2.7,3.73-1.1,4.5-2.24,9-3.37,13.48-1,3.9-2,7.78-2.89,11.69a4.29,4.29,0,0,1-2.31,3.25Z"/><path class="cls-4" d="M134.46,132H105.94c-7.84,0-13.86-3.41-18.12-9.93a2.33,2.33,0,0,0-2.3-1.18q-9.48,0-19,0c-11.89,0-20.84-8.44-21.6-20.29C44.15,88,56.12,77,68.61,78.89c1.09.17,1.42-.2,1.84-1.08C75.16,67.75,83.09,61.94,94.13,61.1c10.55-.8,19,3.51,25.16,12.19a2.27,2.27,0,0,0,2.19,1c3.88.14,7.38-1.64,11.15-2,11-1,19.64,3.11,26.08,12a2.16,2.16,0,0,0,2.31,1.1A23.39,23.39,0,1,1,163.14,132C153.58,132.05,144,132,134.46,132Zm0-5.25h0c9.84,0,19.68.15,29.52-.05,7.37-.15,12.79-3.88,15.88-10.51a17,17,0,0,0-2.28-18.9c-4.57-5.7-10.67-7.88-17.92-6.46-2.35.46-2.91.22-4.11-1.78-4.89-8.18-12.15-12.41-21.63-11.61-9.8.83-16.47,6.35-20,15.57-1.11,2.91-1.65,3.27-4.71,2.49a15.84,15.84,0,1,0-3.81,31.24C115.12,126.84,124.79,126.77,134.47,126.77ZM116.79,79.39c-6.06-11.91-19.48-16.54-30.92-10.72A22.56,22.56,0,0,0,74.29,82.38c-.7,2.19-1.74,2.75-3.92,2.22l-1.14-.3A15.8,15.8,0,0,0,50.44,97c-1.45,9.23,4.87,18,13.83,18.53,6.74.4,13.53.09,20.29.08.09,0,.18-.11.31-.19-.06-.59-.11-1.2-.19-1.81A21.09,21.09,0,0,1,108.27,90a1.66,1.66,0,0,0,1.41-.62A31.89,31.89,0,0,1,116.79,79.39Z"/></g></g></svg>