<svg xmlns="http://www.w3.org/2000/svg" viewBox="0 0 160.12 160.12"><defs><style>.cls-1{fill:#0069b9;}.cls-2{fill:#0083c8;}.cls-3{fill:#fffdfd;}</style></defs><title>civil </title><g id="Layer_2" data-name="Layer 2"><g id="Layer_1-2" data-name="Layer 1"><circle class="cls-1" cx="80.06" cy="80.06" r="80.06"/><path class="cls-2" d="M80.06,0C124,0,160.12,36.14,160.12,80.06S124,160.12,80.06,160.12"/><path class="cls-3" d="M111.11,72.33c0,2.14,0,4.24,0,6.34a1.14,1.14,0,0,0,.7.84c4.44,1.38,5.8,5.73,2.83,9.31Q104.85,100.69,95,112.5A6.45,6.45,0,0,0,93.31,117c.08,5.88.06,11.77,0,17.65a3.25,3.25,0,0,1-.86,2.16,2.11,2.11,0,0,1-2,.13,2.92,2.92,0,0,1-1.09-2c-.1-4.52,0-9,0-13.56,0-1.76,0-3.52,0-5.27a8.16,8.16,0,0,1,2-5.55Q101.17,98.81,111,87a12.58,12.58,0,0,0,1-1.24c.49-.74.44-1.57-.32-1.94a3,3,0,0,0-1.89.13c-.32.1-.54.55-.79.86-5.41,6.52-10.86,13-16.2,19.58a8.52,8.52,0,0,1-7.39,3.49c-3.64-.13-7.28-.08-10.93,0a7.89,7.89,0,0,1-6.63-3.1c-5.5-6.67-11.06-13.29-16.6-19.93l-.43-.5c-.64-.72-1.37-1.2-2.27-.46s-.64,1.61,0,2.4q4.66,5.63,9.36,11.23,5.43,6.53,10.88,13a8.62,8.62,0,0,1,2.1,5.8c0,6.1,0,12.2,0,18.3a3.39,3.39,0,0,1-.87,2.18A2,2,0,0,1,68,137a2.63,2.63,0,0,1-1.19-1.81c-.14-2.37-.07-4.74-.07-7.11,0-3.91,0-7.82,0-11.72A4.82,4.82,0,0,0,65.59,113Q55.71,101.29,45.9,89.5a10,10,0,0,1-1.81-2.86A5.53,5.53,0,0,1,48,79.56c.38-.11.94-.56,1-.88.08-2.09,0-4.19,0-6.47-1.26,0-2.43,0-3.6,0-1.7,0-2.45-.71-2.45-2.37q0-15.67,0-31.35c0-1.72.78-2.36,2.72-2.36h68.89c1.93,0,2.6.68,2.6,2.62q0,15.42,0,30.82c0,2-.68,2.63-2.59,2.65h-3A3.11,3.11,0,0,0,111.11,72.33Zm-64-4.25H113V40.26H47.1Zm42.77,33.21c.42-.46.66-.71.88-1,4.92-5.9,9.81-11.83,14.79-17.67a5.49,5.49,0,0,0,1.51-4.24c-.14-2,0-4.08,0-6.09H53.1c0,2.74,0,5.37,0,8a2,2,0,0,0,.51,1.13Q59.4,88.4,65.19,95.31l5,6c-1.15-6.3.2-10.2,4.28-12.78A10.51,10.51,0,0,1,86,88.78C89.9,91.49,91.2,95.6,89.87,101.29Zm-3.44-3.94A6.37,6.37,0,1,0,80,103.78,6.47,6.47,0,0,0,86.43,97.35Z"/></g></g></svg>