<svg xmlns="http://www.w3.org/2000/svg" viewBox="0 0 160.12 160.12"><defs><style>.cls-1{fill:#391e45;}.cls-2{fill:#fff;opacity:0.18;}.cls-3{fill:#fffdfd;stroke:#fff;stroke-miterlimit:10;stroke-width:0.25px;}</style></defs><title>bomb</title><g id="Layer_2" data-name="Layer 2"><g id="Layer_1-2" data-name="Layer 1"><circle class="cls-1" cx="80.06" cy="80.06" r="80.06"/><path class="cls-2" d="M80.06,0C124,0,160.12,36.14,160.12,80.06S124,160.12,80.06,160.12"/><path class="cls-3" d="M116.72,32.39a2.31,2.31,0,0,0-3,1c-.1.31-3.47,6.64-17.24,6.64-12.29,0-16.08,8.07-17.34,12.57H69.73a2.19,2.19,0,0,0-2.21,2.14v11A30.56,30.56,0,0,0,49.34,93.48c0,16.86,14.08,30.55,31.53,30.55s31.43-13.69,31.43-30.55A30.56,30.56,0,0,0,94.12,65.8v-11a2.19,2.19,0,0,0-2.21-2.14h-8.2c1.26-3.78,4.52-8.28,12.72-8.28,16.82,0,21.13-8.78,21.23-9.19A1.88,1.88,0,0,0,116.72,32.39Zm-8.83,61.2c0,14.5-12.09,26.25-27,26.25s-27-11.75-27-26.25S66,67.33,80.87,67.33,107.89,79.08,107.89,93.59ZM89.81,57v7.25A32.23,32.23,0,0,0,80.87,63a32.74,32.74,0,0,0-8.93,1.22V57Z"/></g></g></svg>