<svg xmlns="http://www.w3.org/2000/svg" viewBox="0 0 224.24 224.24"><defs><style>.cls-1{opacity:0.88;}.cls-2{fill:#ed5a55;}.cls-3{fill:#eb1b2d;}.cls-4{fill:#fffdfd;stroke:#fff;stroke-miterlimit:10;stroke-width:2px;}</style></defs><title>emergency_small</title><g id="Layer_2" data-name="Layer 2"><g id="Layer_1-2" data-name="Layer 1"><g class="cls-1"><circle class="cls-2" cx="112.12" cy="112.12" r="112.12"/><path class="cls-3" d="M112.12,0C50.61,0,0,50.61,0,112.12S50.61,224.24,112.12,224.24"/></g><path class="cls-4" d="M111.82,50.56a1.48,1.48,0,0,0-1.42,1.54V75.83a1.48,1.48,0,0,0,3,0V52.1a1.48,1.48,0,0,0-1.3-1.53Zm34.53,24.17L134.5,86.57h0a1.49,1.49,0,1,0,2.13,2.08l11.85-11.84a1.57,1.57,0,0,0,.45-.93,1.49,1.49,0,0,0-1.33-1.62A1.47,1.47,0,0,0,146.35,74.73Zm-71.11,0a1.49,1.49,0,0,0,0,2.1L87.13,88.65a1.49,1.49,0,1,0,2.12-2.08L77.41,74.73a1.48,1.48,0,0,0-1-.47A1.5,1.5,0,0,0,75.24,74.71Zm8.51,51.83v18.83H74.87a1.49,1.49,0,0,0-1.48,1.49V166.1H61.5a1.48,1.48,0,1,0,0,3H162.22a1.49,1.49,0,1,0,.27-3H150.37V146.86a1.48,1.48,0,0,0-1.2-1.49H140V126.54a28.13,28.13,0,1,0-56.26,0Zm53.3,0v18.83H86.71V126.54a25.17,25.17,0,1,1,50.34,0Zm-25.21-18.18a1.48,1.48,0,0,0,0,3c7.4,0,14.8,6.07,14.8,13.33v0a1.49,1.49,0,0,0,3,0c0-9.2-8.77-16.29-17.77-16.29Zm57.78,1.48H145.89a1.48,1.48,0,0,0,0,3h23.69a1.49,1.49,0,1,0,.28-3A1.31,1.31,0,0,0,169.62,109.84Zm-91.79,0H54.1a1.48,1.48,0,0,0,0,3H77.83a1.49,1.49,0,1,0,.27-3A1.22,1.22,0,0,0,77.83,109.84Zm69.58,56.26H76.35V148.34h71.06Z"/></g></g></svg>