<svg xmlns="http://www.w3.org/2000/svg" viewBox="0 0 160.12 160.12"><defs><style>.cls-1{fill:#0069b9;}.cls-2{fill:#0083c8;}.cls-3{fill:#fffdfd;stroke:#fff;stroke-miterlimit:10;}</style></defs><title>violence</title><g id="Layer_2" data-name="Layer 2"><g id="Layer_1-2" data-name="Layer 1"><circle class="cls-1" cx="80.06" cy="80.06" r="80.06"/><path class="cls-2" d="M80.06,0C124,0,160.12,36.14,160.12,80.06S124,160.12,80.06,160.12"/><path class="cls-3" d="M74.35,54.77,70,58.56a.85.85,0,0,0-.28.64.83.83,0,0,0,.3.63c.67.56,2.38,1.83,4,3.05s3.17,2.36,3.62,2.75a.84.84,0,0,0,1.09,0l2.48-2.11a5.58,5.58,0,0,0,1-7.82A5.67,5.67,0,0,0,74.35,54.77Zm5.84,7.45-2,1.68c-.72-.56-1.91-1.44-3.15-2.36s-2.37-1.76-3.18-2.38l3.53-3.1a4,4,0,0,1,5.48.68A3.9,3.9,0,0,1,80.19,62.22Z"/><path class="cls-3" d="M86.06,61.56l-5.69,4.63a.84.84,0,0,0-.15,1.15,14.19,14.19,0,0,0,1,1.11,30.29,30.29,0,0,1,2.06,2.4c1.31,1.65.63,4.09-.37,5.2a.85.85,0,0,0,0,1.13.84.84,0,0,0,.61.27.82.82,0,0,0,.52-.18l8.9-6.94a5.56,5.56,0,0,0,1-7.81A5.67,5.67,0,0,0,86.06,61.56ZM91.9,69l-6.33,4.93a5.25,5.25,0,0,0-1-4.13,32.41,32.41,0,0,0-2.16-2.51L82.09,67l5-4.09a4,4,0,0,1,5.47.68A3.9,3.9,0,0,1,91.9,69Z"/><path class="cls-3" d="M84.76,79.12a5.57,5.57,0,0,0,3.43,10h0a5.48,5.48,0,0,0,3.43-1.19l8.9-6.93a5.56,5.56,0,0,0,1-7.83,5.71,5.71,0,0,0-7.82-1Zm12.32-6.45a3.88,3.88,0,0,1,3.08,1.5A3.81,3.81,0,0,1,101,77a3.91,3.91,0,0,1-1.46,2.59l-8.91,7a4,4,0,0,1-5.47-.67,3.91,3.91,0,0,1,.67-5.47l8.9-7A3.91,3.91,0,0,1,97.08,72.67Z"/><path class="cls-3" d="M98.06,85.06,89.15,92a5.58,5.58,0,0,0,3.44,10A5.48,5.48,0,0,0,96,100.78l8.9-7a5.57,5.57,0,0,0,1-7.81A5.7,5.7,0,0,0,98.06,85.06Zm5.83,7.46L95,99.46a4,4,0,0,1-5.48-.66,3.92,3.92,0,0,1,.68-5.48l8.91-6.94a3.89,3.89,0,0,1,5.46.68A3.9,3.9,0,0,1,103.89,92.52Z"/><path class="cls-3" d="M90.47,103.1A7.1,7.1,0,0,1,87,100.77c-2.71-3.49-3.11-5.85-1.33-7.9a.84.84,0,0,0-.9-1.35c-.75.26-2.18-.63-4.13-2.56-1.76-1.75-1.86-4.65-.25-7.24a.83.83,0,0,0-.21-1.12.85.85,0,0,0-1.14.13c-1.19,1.4-2.31,2.06-3.51,2.06-2.53,0-5.92-2.78-11-7-1.39-1.14-2.91-2.39-4.59-3.73.36-.53.8-1.19,1.27-2l12.12,8.46a5.5,5.5,0,0,0,2.83.78,5.59,5.59,0,0,0,4.8-2.74,5.52,5.52,0,0,0,.61-4.22,5.46,5.46,0,0,0-2.48-3.36L65.87,59.14a1.7,1.7,0,0,0-.33-.16,1.17,1.17,0,0,0-.39-.27C58.46,56,53.74,56.42,50.65,60c-3.75,4.32-6.74,8.22-9.9,12.36-2.27,3-2.1,8.36-1.93,14.07s.35,11.52-2.1,14a.83.83,0,0,0,0,1.15l18.07,19.77a.85.85,0,0,0,.62.28.86.86,0,0,0,.52-.18c4.45-3.44,7.79-4.43,12-5.67,5.25-1.55,11.79-3.47,22.79-11.18a.84.84,0,0,0,.35-.82A.86.86,0,0,0,90.47,103.1Zm-23,11.06c-4,1.19-7.54,2.22-11.95,5.49L38.43,101c2.42-3.17,2.24-9,2.07-14.62-.16-5.17-.33-10.51,1.58-13,3.15-4.11,6.12-8,9.83-12.28,2.61-3,6.57-3.28,12.46-.89a.74.74,0,0,0,.29.23l.27.09,13.19,9.91a3.91,3.91,0,0,1-3.93,6.75L61.41,68.25a.86.86,0,0,0-.65-.13.84.84,0,0,0-.54.38c-.87,1.4-1.67,2.6-2.14,3.26a.85.85,0,0,0,.16,1.15c1.92,1.51,3.64,2.92,5.18,4.19,5.6,4.59,9,7.36,12.11,7.36A5.1,5.1,0,0,0,77.72,84a6.71,6.71,0,0,0,1.74,6.18,11.2,11.2,0,0,0,4.05,2.92c-1.63,3.18.39,6.44,2.17,8.73a8.62,8.62,0,0,0,2.79,2.29C78.45,110.92,72.37,112.71,67.44,114.16Z"/><path class="cls-3" d="M120.8,74.51a.85.85,0,0,0-.4-.61,18.82,18.82,0,0,1-8.54-12.34c-1-4.91-.26-9.88,2.09-13.29a.84.84,0,0,0-.89-1.29,23.56,23.56,0,0,1-25.92-9.7.85.85,0,0,0-.65-.39.87.87,0,0,0-.69.3c-5.72,6.65-22.49,3.11-22.66,3.08a.83.83,0,0,0-1,.64.84.84,0,0,0,.64,1c.71.15,16.66,3.52,23.54-2.85a25.17,25.17,0,0,0,25.25,10,20,20,0,0,0-1.35,12.89,20.53,20.53,0,0,0,8.46,12.88c-7.66,9-3.06,23-2.86,23.57a.84.84,0,0,0,.79.57.65.65,0,0,0,.27-.05.83.83,0,0,0,.53-1.06c0-.14-4.74-14.34,3.16-22.62A.85.85,0,0,0,120.8,74.51Z"/></g></g></svg>