<svg xmlns="http://www.w3.org/2000/svg" viewBox="0 0 224.24 224.24"><defs><style>.cls-1{fill:#0069b9;opacity:0.84;}.cls-2{fill:#0096d5;}.cls-3{fill:#fffdfd;stroke:#fff;stroke-miterlimit:10;stroke-width:4px;}</style></defs><title>security_small</title><g id="Layer_2" data-name="Layer 2"><g id="Layer_1-2" data-name="Layer 1"><circle class="cls-1" cx="112.12" cy="112.12" r="112.12"/><path class="cls-2" d="M112.12,0c61.51,0,112.12,50.61,112.12,112.12S173.63,224.24,112.12,224.24"/><path class="cls-3" d="M112.12,46.25,59.56,66.88v42.83c0,59.16,51.83,71.21,52.35,71.33l.2,0,.2,0c.53-.1,52.37-11.2,52.37-71.33V66.88Zm50.63,63.46c0,56.64-47.14,68.59-50.62,69.39-3.49-.86-50.64-13.66-50.64-69.39V68.2l50.63-19.87L162.75,68.2Z"/><path class="cls-3" d="M97.87,95.13v9.28H92.38V140.8h39.48V104.41h-5.49V95.13a8.56,8.56,0,0,0-8.55-8.55h-11.4A8.56,8.56,0,0,0,97.87,95.13Zm32.06,43.74H94.31V106.34h35.62Zm-5.49-43.74v9.28H99.8V95.13a6.63,6.63,0,0,1,6.62-6.62h11.4A6.63,6.63,0,0,1,124.44,95.13Z"/><path class="cls-3" d="M111.15,124.7v5.6h1.94v-5.6a5.42,5.42,0,1,0-1.94,0Zm1-8.82a3.49,3.49,0,1,1-3.49,3.49A3.49,3.49,0,0,1,112.12,115.88Z"/></g></g></svg>