<svg xmlns="http://www.w3.org/2000/svg" viewBox="0 0 160.13 160.13"><defs><style>.cls-1{fill:#ffcb00;}.cls-2{fill:none;}.cls-3{fill:#ffd54a;}.cls-4{fill:#fffdfd;stroke:#fff;stroke-miterlimit:10;stroke-width:0.5px;}</style></defs><title>odour</title><g id="Layer_2" data-name="Layer 2"><g id="Layer_1-2" data-name="Layer 1"><circle class="cls-1" cx="80.06" cy="80.06" r="80.06"/><path class="cls-2" d="M80.06,0C124,0,160.12,36.14,160.12,80.06S124,160.12,80.06,160.12"/><path class="cls-3" d="M80.06,0C124,0,160.12,36.14,160.12,80.06S124,160.12,80.06,160.12"/><path class="cls-4" d="M109.08,94.08c-.31-7.31-4.71-12.06-9-16.65-.53-.57-1.05-1.13-1.56-1.7L67.25,41.13l-3.59,3.25L95,79c.53.59,1.06,1.17,1.6,1.74,3.82,4.14,7.44,8,7.67,13.57a5.8,5.8,0,0,1-1.51,4.5c-1.89,2-5.63,3.09-10.58,3.2a12.52,12.52,0,0,0-23.09,0H60.61v4.84H72.92a7.68,7.68,0,0,1,15.36,0h4.84c4.46-.2,9.82-1.29,13.1-4.7A10.56,10.56,0,0,0,109.08,94.08Z"/><path class="cls-4" d="M81,130.17H76.19a8.89,8.89,0,0,1,1.5-5.1,4.63,4.63,0,0,0,0-5.23,9.42,9.42,0,0,1,0-10.2A4.28,4.28,0,0,0,78.5,107h4.84a9,9,0,0,1-1.5,5.11,4.56,4.56,0,0,0,0,5.22,9.44,9.44,0,0,1,0,10.21A4.17,4.17,0,0,0,81,130.17Z"/></g></g></svg>