<svg xmlns="http://www.w3.org/2000/svg" viewBox="0 0 224.24 224.24"><defs><style>.cls-1{fill:#391e45;}.cls-2{fill:#fff;opacity:0.18;}.cls-3{fill:#fffdfd;stroke:#fff;stroke-miterlimit:10;stroke-width:2px;}</style></defs><title>threats_small</title><g id="Layer_2" data-name="Layer 2"><g id="Layer_1-2" data-name="Layer 1"><circle class="cls-1" cx="112.12" cy="112.12" r="112.12"/><path class="cls-2" d="M112.12,0c61.51,0,112.12,50.61,112.12,112.12S173.63,224.24,112.12,224.24"/><path class="cls-3" d="M112.12,54.72c5.54,0,10.53,3.65,15,10.8l39,71.57.13.14.14.13c2.7,3.79,3.78,6.89,3.78,10.13,0,7.56-6.35,13.37-14.72,13.37H68.91c-8.51,0-14.85-5.81-14.85-13.37,0-3.24,1.08-6.21,3.78-10.13l.13-.13.14-.14,39-71.43q6.69-10.94,15-10.94m0-4c-7,0-13.37,4.32-18.5,12.83l-39,71.57c-3,4.32-4.46,8.1-4.46,12.42,0,10,8.51,17.42,18.77,17.42h86.42c10.4,0,18.77-7.29,18.77-17.42,0-4.32-1.62-8.1-4.45-12.42l-39-71.57c-5.13-8.51-11.48-12.83-18.5-12.83Z"/><path class="cls-3" d="M105.91,84.57a6.25,6.25,0,0,1,1.76-4.73,6.36,6.36,0,0,1,8.91,0A6.06,6.06,0,0,1,118.33,85v.41l-4,37.94a2.19,2.19,0,0,1-2.16,2,2.43,2.43,0,0,1-2-2l-4.33-37.94A1.66,1.66,0,0,1,105.91,84.57Z"/><circle class="cls-3" cx="112.12" cy="144.41" r="6.35"/></g></g></svg>