<svg xmlns="http://www.w3.org/2000/svg" viewBox="0 0 160.12 160.12"><defs><style>.cls-1{fill:#0069b9;}.cls-2{fill:#0083c8;}.cls-3{fill:#fffdfd;}</style></defs><title>evacuate</title><g id="Layer_2" data-name="Layer 2"><g id="Layer_1-2" data-name="Layer 1"><circle class="cls-1" cx="80.06" cy="80.06" r="80.06"/><path class="cls-2" d="M80.06,0C124,0,160.12,36.14,160.12,80.06S124,160.12,80.06,160.12"/><path class="cls-3" d="M95.6,49.21a10.88,10.88,0,1,0,10.89,10.88A10.9,10.9,0,0,0,95.6,49.21Zm0,16.89a6,6,0,1,1,6-6A6,6,0,0,1,95.6,66.1Z"/><path class="cls-3" d="M76.65,62.36c-.43-.21-10.64-5.26-18.8,1.83l-7,6.1L54,74l7-6.09C66.18,63.4,72.78,66,74.19,66.59l9.45,8.52L67.37,91.7l3.48,3.41L88.9,76.71a2.48,2.48,0,0,0,.7-1.78,2.5,2.5,0,0,0-.81-1.74L77.18,62.72A2.75,2.75,0,0,0,76.65,62.36Z"/><path class="cls-3" d="M35.52,105.37l-3.44,3.44a14.57,14.57,0,0,0,10.58,4.45,18.93,18.93,0,0,0,10-3l5.63-3.91-2.77-4-5.61,3.89C49.59,106.44,41.74,111.59,35.52,105.37Z"/><path class="cls-3" d="M94.46,78.87l-2.12,1.19L90.18,81.2c.42.78,4.51,7.62,21,7.62V84C97.69,84,94.49,78.92,94.46,78.87Z"/><path class="cls-3" d="M70,123.86v4.87h48.48V37.11H65.93V51.65H70.8V42h42.83v81.88H75.22v-8c0-6.1-2.38-8.86-3.22-9.64s-6-7-10.3-12.45a4,4,0,0,1-1-3.11C61,88.51,63.16,86.54,64,86a2.65,2.65,0,0,0,.26-.21L76,74.7l-3.33-3.54L61,82.1c-.89.65-4.5,3.58-5.11,7.82a8.8,8.8,0,0,0,2,6.83c4.69,6,10.48,12.67,10.54,12.74a1.44,1.44,0,0,0,.28.27s1.65,1.57,1.65,6.07v8Z"/><polygon class="cls-3" points="41.96 59.31 45.41 62.75 57.87 50.28 45.41 37.82 41.96 41.26 48.55 47.85 31.05 47.85 31.05 52.72 48.55 52.72 41.96 59.31"/></g></g></svg>