<svg xmlns="http://www.w3.org/2000/svg" viewBox="0 0 393.88 394.26"><defs><style>.cls-1{fill:#ffcb00;}.cls-2{fill:#ffd54a;}.cls-3{font-size:27.83px;fill:#fff;font-family:HelveticaNeue-Medium, Helvetica Neue;}.cls-4{fill:#fffdfd;stroke:#fff;stroke-miterlimit:10;stroke-width:0.5px;}</style></defs><title>notification_big</title><g id="Layer_2" data-name="Layer 2"><g id="Layer_1-2" data-name="Layer 1"><circle class="cls-1" cx="196.9" cy="196.9" r="196.9"/><path class="cls-2" d="M197,0c108,0,196.9,88.88,196.9,196.9S305,393.8,197,393.8"/><g id="_Group_" data-name="&lt;Group&gt;"><text class="cls-3" transform="translate(123.08 319.4)">Notification<tspan x="28.09" y="33.39">History</tspan></text></g><path class="cls-4" d="M196.75,77.4a92.87,92.87,0,0,0-88.3,63.1l-8.6-15.3a5.59,5.59,0,0,0-10.46,3.29,5.36,5.36,0,0,0,.73,2.19L105.41,158a5.56,5.56,0,0,0,7.39,2.26L140,146.32a5.56,5.56,0,0,0-4.63-10.11,3.17,3.17,0,0,0-.41.21l-16.16,8.25a81.72,81.72,0,0,1,78-56.14c45.29,0,81.79,36.08,81.79,80.65s-36.5,80.65-81.79,80.65c-38.74,0-71.08-26.55-79.61-62.05a5.56,5.56,0,1,0-11,1.42,5.33,5.33,0,0,0,.26,1.1c9.72,40.48,46.55,70.66,90.38,70.66,51.22,0,92.91-41.12,92.91-91.78S248,77.4,196.75,77.4Zm.53,41.63a5.57,5.57,0,0,0-5,5.65v44.5a5.58,5.58,0,0,0,2.09,4.35l27.81,22.25a5.57,5.57,0,0,0,6.95-8.7h0l-25.72-20.59V124.68A5.57,5.57,0,0,0,198,119C197.76,119,197.52,119,197.28,119Z"/></g></g></svg>