<svg xmlns="http://www.w3.org/2000/svg" viewBox="0 0 132.84 132.84"><defs><style>.cls-1{fill:#eb1b2d;opacity:0.88;}.cls-2{fill:#fff;}</style></defs><title>phone_red</title><g id="Layer_2" data-name="Layer 2"><g id="Layer_1-2" data-name="Layer 1"><circle class="cls-1" cx="66.42" cy="66.42" r="66.42"/><path class="cls-2" d="M39.71,67.56c-6.49-11.38-8.55-23.89,1.95-30.65l3.45-2.14a3.1,3.1,0,0,1,4.25,1L56.9,47.93a3.73,3.73,0,0,1-.71,4.64S53.37,55.05,51,57s-4.23,4.23,8.34,16.83C71.7,86,74,84.13,75.89,81.81s4.38-5.16,4.38-5.16a3.74,3.74,0,0,1,4.64-.71l12.16,7.54a3.11,3.11,0,0,1,1,4.25l-2.13,3.45c-6.77,10.5-19.28,8.44-30.66,1.95A68.36,68.36,0,0,1,50.79,82.05,72.81,72.81,0,0,1,39.71,67.56Z"/></g></g></svg>