<svg xmlns="http://www.w3.org/2000/svg" viewBox="0 0 224.24 224.24"><defs><style>.cls-1{fill:#0069b9;opacity:0.84;}.cls-2{fill:#0096d5;}.cls-3{fill:#fff;}</style></defs><title>when_small</title><g id="Layer_2" data-name="Layer 2"><g id="Layer_1-2" data-name="Layer 1"><circle class="cls-1" cx="112.12" cy="112.12" r="112.12"/><path class="cls-2" d="M112.12,0c61.51,0,112.12,50.61,112.12,112.12S173.63,224.24,112.12,224.24"/><path class="cls-3" d="M56.73,175.84a3.1,3.1,0,0,1-2.17-.9,3,3,0,0,1-.73-3.14l8.62-25.6a61.29,61.29,0,1,1,20.86,20.85l-25.6,8.63A3.3,3.3,0,0,1,56.73,175.84Zm27-15.21a3,3,0,0,1,1.64.48,55.17,55.17,0,1,0-16.94-17,3.09,3.09,0,0,1,.32,2.63L61.6,167.9l21.12-7.11A3,3,0,0,1,83.7,160.63Z"/><path class="cls-3" d="M112.29,136.46a3.06,3.06,0,0,1-3.06-3.06v-4.75c0-9.21,5.61-13.36,10.13-16.7,4.1-3,7.33-5.42,7.33-11,0-7.24-4.6-11.92-11.72-11.92-8.15,0-11.87,6.67-11.87,12.86a3.06,3.06,0,1,1-6.12,0c0-9.43,6.18-19,18-19,10.51,0,17.85,7.42,17.85,18,0,8.69-5.45,12.72-9.82,16s-7.65,5.65-7.65,11.77v4.75A3.06,3.06,0,0,1,112.29,136.46Z"/><circle class="cls-3" cx="112.21" cy="145.11" r="3.06"/></g></g></svg>