<svg xmlns="http://www.w3.org/2000/svg" viewBox="0 0 160.12 160.12"><defs><style>.cls-1{fill:#ffcb00;}.cls-2{fill:#ffd54a;}.cls-3{fill:#fffdfd;stroke:#fff;stroke-miterlimit:10;stroke-width:2px;}</style></defs><title>lockdown</title><g id="Layer_2" data-name="Layer 2"><g id="Layer_1-2" data-name="Layer 1"><circle class="cls-1" cx="80.06" cy="80.06" r="80.06"/><path class="cls-2" d="M80.06,0C124,0,160.12,36.14,160.12,80.06S124,160.12,80.06,160.12"/><path class="cls-3" d="M108.43,71.72h-4.15V55.11a22.84,22.84,0,0,0-45.68,0V71.72H54.45A6.23,6.23,0,0,0,48.22,78v39.44a6.23,6.23,0,0,0,6.23,6.23h54a6.23,6.23,0,0,0,6.22-6.23V78A6.23,6.23,0,0,0,108.43,71.72ZM62.75,55.11a18.69,18.69,0,0,1,37.37,0V71.72H62.75Zm47.75,62.28a2.08,2.08,0,0,1-2.08,2.08h-54a2.08,2.08,0,0,1-2.08-2.08V78a2.08,2.08,0,0,1,2.08-2.08h54A2.08,2.08,0,0,1,110.5,78v39.44Z"/><path class="cls-3" d="M87.89,84.35a10.42,10.42,0,0,0-8.92-2,10.36,10.36,0,0,0-3.76,18.37V107a6.23,6.23,0,0,0,12.45,0v-6.27a10.35,10.35,0,0,0,.23-16.4ZM84.54,97.84a2.06,2.06,0,0,0-1,1.79V107a2.08,2.08,0,1,1-4.16,0V99.63a2.06,2.06,0,0,0-1-1.79,6.21,6.21,0,0,1,1.59-11.41,6.23,6.23,0,0,1,7.75,6A6.15,6.15,0,0,1,84.54,97.84Z"/></g></g></svg>