<svg xmlns="http://www.w3.org/2000/svg" viewBox="0 0 393.88 393.8"><defs><style>.cls-1{fill:#ff9200;}.cls-2{fill:#ffa400;}.cls-3{font-size:27.83px;fill:#fff;font-family:HelveticaNeue-Medium, Helvetica Neue;}.cls-4{fill:none;stroke:#fff;stroke-width:6px;}</style></defs><title>social_big</title><g id="Layer_2" data-name="Layer 2"><g id="Layer_1-2" data-name="Layer 1"><circle class="cls-1" cx="196.9" cy="196.9" r="196.9"/><path class="cls-2" d="M197,0c108,0,196.9,88.88,196.9,196.9S305,393.8,197,393.8"/><g id="_Group_" data-name="&lt;Group&gt;"><text class="cls-3" transform="translate(158.1 309.54)">Social <tspan x="-0.25" y="33.39">Media</tspan></text></g><path class="cls-4" d="M250.11,82.84A26,26,0,0,0,224.35,109a33.54,33.54,0,0,0,.61,5.53l-65.32,34.43a27.09,27.09,0,0,0-15.94-5.54,26.13,26.13,0,0,0,0,52.26,25.52,25.52,0,0,0,15.64-5.53L225,224.54a30.18,30.18,0,0,0-.61,5.23A25.76,25.76,0,1,0,250.11,204a26.51,26.51,0,0,0-15.64,5.23l-65.63-34.43a15.13,15.13,0,0,0,.62-5.23,15.07,15.07,0,0,0-.62-5.22l65.93-34.43a25,25,0,0,0,15.34,5.23,26.13,26.13,0,0,0,0-52.26Z"/></g></g></svg>