<svg xmlns="http://www.w3.org/2000/svg" viewBox="0 0 393.88 393.8"><defs><style>.cls-1{fill:#0069b9;opacity:0.84;}.cls-2{fill:#0096d5;}.cls-3{font-size:27.83px;fill:#fff;font-family:HelveticaNeue-Medium, Helvetica Neue;}.cls-4{fill:#fffdfd;stroke:#fff;stroke-miterlimit:10;stroke-width:4px;}</style></defs><title>security_big</title><g id="Layer_2" data-name="Layer 2"><g id="Layer_1-2" data-name="Layer 1"><circle class="cls-1" cx="196.9" cy="196.9" r="196.9"/><path class="cls-2" d="M197,0c108,0,196.9,88.88,196.9,196.9S305,393.8,197,393.8"/><g id="_Group_" data-name="&lt;Group&gt;"><text class="cls-3" transform="translate(145.01 331.3)">Security</text></g><path class="cls-4" d="M196.9,68.51l-82.4,32.35V168c0,92.75,81.25,111.65,82.07,111.83l.32.07.31-.07c.82-.16,82.1-17.56,82.1-111.83V100.86ZM276.26,168c0,88.8-73.89,107.54-79.35,108.8-5.46-1.36-79.38-21.42-79.38-108.8V102.92L196.9,71.77l79.36,31.15Z"/><path class="cls-4" d="M174.55,145.14v14.54H166v57.06h61.9V159.68h-8.61V145.14a13.41,13.41,0,0,0-13.4-13.4H188A13.42,13.42,0,0,0,174.55,145.14Zm50.27,68.57H169v-51h55.84Zm-8.61-68.57v14.54H177.58V145.14A10.39,10.39,0,0,1,188,134.77h17.88A10.38,10.38,0,0,1,216.21,145.14Z"/><path class="cls-4" d="M195.38,191.49v8.78h3v-8.78a8.5,8.5,0,1,0-3,0Zm1.52-13.82a5.48,5.48,0,1,1-5.47,5.47A5.47,5.47,0,0,1,196.9,177.67Z"/></g></g></svg>