<svg xmlns="http://www.w3.org/2000/svg" viewBox="0 0 224.24 224.24"><defs><style>.cls-1{fill:#391e45;}.cls-2,.cls-3{fill:#fff;}.cls-2{opacity:0.18;}</style></defs><title>tersm_small</title><g id="Layer_2" data-name="Layer 2"><g id="Layer_1-2" data-name="Layer 1"><circle class="cls-1" cx="112.12" cy="112.12" r="112.12"/><path class="cls-2" d="M112.12,0c61.51,0,112.12,50.61,112.12,112.12S173.63,224.24,112.12,224.24"/><path class="cls-3" d="M162.55,121.27h-7.21V83.39c-.54-.06-.91-.14-1.28-.14-4,0-8,0-11.93,0A9.13,9.13,0,0,1,132.6,74c-.1-4.71,0-9.42,0-14.13V58c-.63,0-1.15-.07-1.66-.07H74.71C71.29,58,70,59.22,70,62.7v95.52c0,.87,0,1.75,0,2.62a3.64,3.64,0,0,0,4,3.69c15.92,0,31.84,0,47.75,0,1.35,0,1.82.43,2.12,1.67.44,1.86,1.12,3.68,1.73,5.61a9.48,9.48,0,0,1-1,.1c-16.89,0-33.78-.12-50.67.06A11.2,11.2,0,0,1,62.7,160.75q0-15.72,0-31.45,0-33.42,0-66.83a12.11,12.11,0,0,1,2.8-8.21,10.12,10.12,0,0,1,7.92-3.69h39.46c7.52,0,15,0,22.57,0a3.51,3.51,0,0,1,2.88,1.26c7.85,8.68,15.75,17.3,23.61,26a2.94,2.94,0,0,1,.73,1.76c0,13.59,0,27.18,0,40.77C162.65,120.62,162.58,120.94,162.55,121.27Z"/><path class="cls-3" d="M158.7,184.76a27.6,27.6,0,1,1,.5-55.19c14.84.07,27.12,12.59,27.09,27.62A27.6,27.6,0,0,1,158.7,184.76Zm-5.85-23.42-1.1-1.3c-1.82-2.21-3.61-4.45-5.48-6.61a4.27,4.27,0,0,0-5.91-.52,4,4,0,0,0-.67,5.82q4.78,6,9.75,11.77a4.15,4.15,0,0,0,6.32.12c6.63-7.08,13.21-14.22,19.79-21.35a3.83,3.83,0,0,0,.88-3.93,4.28,4.28,0,0,0-7.27-1.57c-2.72,2.84-5.35,5.77-8,8.65S155.67,158.31,152.85,161.34Z"/><path class="cls-3" d="M102.06,120.64H85.77c-1.91,0-3-.9-2.94-2.41s1.08-2.28,3-2.28h32.15a9,9,0,0,1,1.16,0,2.32,2.32,0,0,1,2.2,2.42,2.24,2.24,0,0,1-2.36,2.24c-3.88,0-7.76,0-11.63,0Z"/><path class="cls-3" d="M102.08,86.35c-5.43,0-10.86,0-16.29,0a3.67,3.67,0,0,1-2.5-1c-1.22-1.41-.1-3.47,1.91-3.6,1.64-.1,3.29,0,4.94,0q13.74,0,27.48,0c.34,0,.68,0,1,0,1.68.09,2.69,1,2.66,2.44s-1,2.26-2.79,2.26H102.08Z"/><path class="cls-3" d="M101.91,103.47c-5.43,0-10.86,0-16.29,0-1.72,0-2.68-.76-2.78-2.12-.11-1.52,1-2.57,2.81-2.58q10,0,20.07,0c4.22,0,8.43,0,12.65,0,1.84,0,2.91.85,2.93,2.3s-1,2.39-2.81,2.4c-5.53,0-11.06,0-16.58,0Z"/></g></g></svg>