<svg xmlns="http://www.w3.org/2000/svg" viewBox="0 0 224.24 224.24"><defs><style>.cls-1{fill:#ff9200;}.cls-2{fill:#ffa400;}.cls-3{fill:none;stroke:#fff;stroke-width:6px;}</style></defs><title>social_small</title><g id="Layer_2" data-name="Layer 2"><g id="Layer_1-2" data-name="Layer 1"><circle class="cls-1" cx="112.12" cy="112.12" r="112.12"/><path class="cls-2" d="M112.12,0c61.51,0,112.12,50.61,112.12,112.12S173.63,224.24,112.12,224.24"/><path class="cls-3" d="M141,57.76A18.56,18.56,0,0,0,122.58,76.4a24,24,0,0,0,.44,3.94L76.43,104.9a19.36,19.36,0,0,0-11.38-4,18.64,18.64,0,0,0,0,37.28,18.15,18.15,0,0,0,11.16-3.95L123,158.84a21.68,21.68,0,0,0-.44,3.73A18.38,18.38,0,1,0,141,144.15a19,19,0,0,0-11.16,3.73L83,123.32a10.81,10.81,0,0,0,.44-3.73,10.79,10.79,0,0,0-.44-3.72l47-24.56A17.83,17.83,0,0,0,141,95a18.64,18.64,0,0,0,0-37.27Z"/></g></g></svg>