<svg xmlns="http://www.w3.org/2000/svg" viewBox="0 0 393.88 393.8"><defs><style>.cls-1{fill:#5ac28f;}.cls-2{fill:#7ac095;}.cls-3{font-size:27.83px;font-family:HelveticaNeue-Medium, Helvetica Neue;}.cls-3,.cls-5{fill:#fff;}.cls-4{letter-spacing:-0.02em;}.cls-5{stroke:#fff;stroke-miterlimit:10;}</style></defs><title>weather_big</title><g id="Layer_2" data-name="Layer 2"><g id="Layer_1-2" data-name="Layer 1"><circle class="cls-1" cx="196.9" cy="196.9" r="196.9"/><path class="cls-2" d="M197,0c108,0,196.9,88.88,196.9,196.9S305,393.8,197,393.8"/><g id="_Group_" data-name="&lt;Group&gt;"><text class="cls-3" transform="translate(127.18 319.4)">Roads and<tspan class="cls-4" x="15.99" y="33.39">W</tspan><tspan x="41.76" y="33.39">eather</tspan></text></g><path class="cls-5" d="M132.57,261.69c-2.64-1.65-3.08-3.83-2.3-6.82,3.23-12.34,6.26-24.73,9.36-37.1.08-.33.13-.66.23-1,.73-2.33,2.64-3.61,4.68-3.15a4,4,0,0,1,2.91,5.05c-3.27,13.19-6.54,26.37-10,39.51-.34,1.33-1.89,2.33-2.88,3.49Z"/><path class="cls-5" d="M206.35,261.69c-3.21-1.93-3.58-2.86-2.66-6.58L213,218c.1-.4.22-.8.35-1.2.76-2.36,2.61-3.59,4.68-3.1a3.81,3.81,0,0,1,2.84,4.84c-.78,3.75-1.78,7.46-2.71,11.18-2.27,9.07-4.59,18.12-6.77,27.2-.53,2.17-1.4,3.88-3.5,4.81Z"/><path class="cls-5" d="M243,261.69c-3.16-2-3.5-2.85-2.57-6.61l9.24-37.16c.08-.32.2-.64.29-1,.75-2.51,2.65-3.81,4.78-3.29s3.34,2.49,2.76,5.11c-1,4.32-2.07,8.6-3.14,12.89-2.11,8.42-4.31,16.81-6.32,25.25-.52,2.21-1.43,3.86-3.53,4.77Z"/><path class="cls-5" d="M169.71,261.69c-3.24-1.87-3.66-2.87-2.75-6.54q4.68-18.69,9.34-37.39c.52-2.08,1.3-3.85,3.7-4.15,2.94-.38,4.85,2.24,4,5.58-1.64,6.73-3.35,13.44-5,20.16-1.45,5.82-3,11.63-4.33,17.48-.5,2.17-1.39,3.89-3.45,4.86Z"/><path class="cls-5" d="M221.52,198.94q-21.33,0-42.65,0c-11.72,0-20.72-5.09-27.08-14.84a3.55,3.55,0,0,0-3.46-1.77c-9.45.06-18.9,0-28.35,0-17.77,0-31.16-12.63-32.29-30.35-1.21-18.86,16.69-35.37,35.36-32.51,1.64.25,2.13-.29,2.75-1.61,7-15,18.91-23.74,35.41-25,15.79-1.2,28.45,5.25,37.63,18.23.91,1.29,1.81,1.39,3.28,1.44,5.8.22,11-2.45,16.67-2.94,16.39-1.42,29.37,4.65,39,17.9a3.23,3.23,0,0,0,3.46,1.65c17.6-2.16,34.63,10.38,37.89,27.82,4.15,22.21-12.08,41.86-34.72,42C250.12,199,235.82,198.94,221.52,198.94Zm0-7.85v0c14.72,0,29.44.22,44.15-.08,11-.22,19.13-5.8,23.74-15.71s3.45-19.7-3.41-28.26-15.94-11.79-26.79-9.67c-3.51.69-4.35.34-6.15-2.66-7.32-12.23-18.17-18.56-32.35-17.36-14.65,1.24-24.62,9.5-29.85,23.28-1.65,4.36-2.46,4.89-7,3.73a23.69,23.69,0,1,0-5.71,46.72C192.6,191.18,207.07,191.09,221.54,191.09ZM195.1,120.24C186,102.42,166,95.5,148.86,104.2a33.66,33.66,0,0,0-17.31,20.51c-1.05,3.26-2.6,4.11-5.87,3.31-.57-.14-1.13-.31-1.7-.44-12.8-2.89-26.06,6.06-28.1,19-2.18,13.8,7.28,26.92,20.68,27.72,10.08.6,20.23.13,30.35.12.13,0,.27-.17.46-.29-.1-.89-.17-1.8-.29-2.71a31.54,31.54,0,0,1,35.29-35.32,2.51,2.51,0,0,0,2.1-.94A47.54,47.54,0,0,1,195.1,120.24Z"/></g></g></svg>