<svg xmlns="http://www.w3.org/2000/svg" viewBox="0 0 160.12 160.12"><defs><style>.cls-1{opacity:0.88;}.cls-2{fill:#eb1b2d;}.cls-3{fill:#ed5a55;}.cls-4{fill:#fffdfd;stroke:#fff;stroke-miterlimit:10;stroke-width:0.75px;}</style></defs><title>collision</title><g id="Layer_2" data-name="Layer 2"><g id="Layer_1-2" data-name="Layer 1"><g class="cls-1"><circle class="cls-2" cx="80.06" cy="80.06" r="80.06"/><path class="cls-3" d="M80.06,0C124,0,160.12,36.14,160.12,80.06S124,160.12,80.06,160.12"/></g><path class="cls-4" d="M80.69,50.08a1.2,1.2,0,0,0-.65.4l-5.31,6.39L65.09,55.8a1.14,1.14,0,0,0-1.28,1,1.19,1.19,0,0,0,.17.76l6.85,10.29a1.15,1.15,0,0,0,1.93-1.25l-5.5-8.25,7.82.85a1.15,1.15,0,0,0,1-.39L80.94,53l4.82,5.79a1.12,1.12,0,0,0,1,.39l7.82-.85-5.5,8.25A1.15,1.15,0,0,0,91,67.85h0l6.85-10.29A1.14,1.14,0,0,0,97.55,56a1.2,1.2,0,0,0-.76-.17l-9.64,1.07-5.32-6.39A1.16,1.16,0,0,0,80.69,50.08ZM32.75,54.66A1.14,1.14,0,1,0,33,56.94h9.75L58,75.24H32.75a1.14,1.14,0,1,0,.2,2.28H75.22v22.87H61.48a10.29,10.29,0,0,0-20.45,0H33a.74.74,0,0,0-.21,0,1.14,1.14,0,1,0,.21,2.28H41a10.27,10.27,0,0,0,20.42,0H76.37a1.14,1.14,0,0,0,1.14-1.14V76.38a1.14,1.14,0,0,0-1.14-1.14H61L44.13,55.05a1.12,1.12,0,0,0-.89-.39H32.75Zm85.67,0a1.08,1.08,0,0,0-.68.39L100.93,75.24H85.29a1.14,1.14,0,0,0-.93,1.14v25.15a1.14,1.14,0,0,0,1.15,1.14h14.92a10.27,10.27,0,0,0,20.41,0l.08,0h8a1.14,1.14,0,1,0,0-2.28h-8.1a10.27,10.27,0,0,0-20.41,0H86.65V77.52h42.26a1.14,1.14,0,0,0,1.16-1.12A1.13,1.13,0,0,0,129,75.24h-25l15.25-18.3h9.74a1.14,1.14,0,1,0,0-2.28H118.42ZM51.24,93.53a8,8,0,1,1-8,8A8,8,0,0,1,51.24,93.53Zm59.4,0a8,8,0,1,1-8,8A8,8,0,0,1,110.64,93.53Z"/></g></g></svg>