<svg xmlns="http://www.w3.org/2000/svg" viewBox="0 0 224.24 224.24"><defs><style>.cls-1{fill:#ff9200;}.cls-2{fill:#ffa400;}.cls-3{fill:#fffdfd;stroke:#fff;stroke-miterlimit:10;stroke-width:2px;}</style></defs><title>howto_small</title><g id="Layer_2" data-name="Layer 2"><g id="Layer_1-2" data-name="Layer 1"><circle class="cls-1" cx="112.12" cy="112.12" r="112.12"/><path class="cls-2" d="M112.12,0c61.51,0,112.12,50.61,112.12,112.12S173.63,224.24,112.12,224.24"/><path class="cls-3" d="M79.16,47.63a7.86,7.86,0,0,0-7.85,7.84v119.3a7.87,7.87,0,0,0,7.85,7.85h65.92a7.87,7.87,0,0,0,7.85-7.85V55.47a7.86,7.86,0,0,0-7.85-7.84Zm0,3.14h65.92a4.66,4.66,0,0,1,4.71,4.7v7.85H74.45V55.47A4.66,4.66,0,0,1,79.16,50.77ZM74.45,66.46h75.34v91H74.45v-91Zm37.62,17.27a1.58,1.58,0,0,0-.73.24l-22,12.56a1.56,1.56,0,0,0-.78,1.33V123a1.53,1.53,0,0,0,.78,1.32l22,12.56a1.52,1.52,0,0,0,.68.25,1.64,1.64,0,0,0,.89-.25l22-12.56a1.54,1.54,0,0,0,.79-1.32V97.86a1.57,1.57,0,0,0-.79-1.33L112.91,84A1.64,1.64,0,0,0,112.07,83.73Zm.05,3.38,18.79,10.75L112.12,108.6,93.33,97.86ZM91.76,100.55l18.79,10.75v21.53L91.76,122.09Zm40.72,0v21.54l-18.79,10.74V111.3Zm-58,60.09h75.34v14.13a4.67,4.67,0,0,1-4.71,4.71H79.16a4.67,4.67,0,0,1-4.71-4.71Zm37.67,4.71a4.71,4.71,0,1,0,4.71,4.71A4.71,4.71,0,0,0,112.12,165.35Z"/></g></g></svg>