<svg xmlns="http://www.w3.org/2000/svg" viewBox="0 0 160.12 160.12"><defs><style>.cls-1{opacity:0.88;}.cls-2{fill:#eb1b2d;}.cls-3{fill:#ed5a55;}.cls-4{fill:#fffdfd;}</style></defs><title>shelter</title><g id="Layer_2" data-name="Layer 2"><g id="Layer_1-2" data-name="Layer 1"><g class="cls-1"><circle class="cls-2" cx="80.06" cy="80.06" r="80.06"/><path class="cls-3" d="M80.06,0C124,0,160.12,36.14,160.12,80.06S124,160.12,80.06,160.12"/></g><circle class="cls-4" cx="80.94" cy="72.14" r="5.61"/><path class="cls-4" d="M92.31,105.32,84,94l-.18-.23-.08-.08-.12-.13-.1-.08-.11-.1-.11-.08-.12-.09-.12-.07-.11-.07L82.81,93l-.12-.06-.14-.05-.11,0-.14,0-.13,0-.14,0-.13,0-.14,0-.13,0h-.7l-.13,0-.15,0-.13,0-.15,0-.13,0-.13,0,0,0L71,96.6c.61-1.36,6.35-11,6.35-11l6.77,7a2.83,2.83,0,0,0,4.06-4L78.2,78.44c-1.37-1.25-3-1.19-4.67-.67a20.94,20.94,0,0,0-10.35,9C58.73,94.07,58,100.45,58,102.08c0,1.28.24,4.17,2,5.31a4.48,4.48,0,0,0,4.27.49l16-7.75L87,109.24a3.31,3.31,0,1,0,5.34-3.92Z"/><polygon class="cls-4" points="126.05 114.3 80.24 52.24 35.79 112.47 28.78 107.3 80.24 37.57 133.06 109.13 126.05 114.3"/></g></g></svg>