<svg xmlns="http://www.w3.org/2000/svg" viewBox="0 0 393.88 393.8"><defs><style>.cls-1{fill:#391e45;}.cls-2,.cls-3,.cls-5{fill:#fff;}.cls-2{opacity:0.18;}.cls-3{font-size:27.83px;font-family:HelveticaNeue-Medium, Helvetica Neue;}.cls-4{letter-spacing:-0.11em;}</style></defs><title>terms_big</title><g id="Layer_2" data-name="Layer 2"><g id="Layer_1-2" data-name="Layer 1"><circle class="cls-1" cx="196.9" cy="196.9" r="196.9"/><path class="cls-2" d="M197,0c108,0,196.9,88.88,196.9,196.9S305,393.8,197,393.8"/><g id="_Group_" data-name="&lt;Group&gt;"><text class="cls-3" transform="translate(130.14 309.54)"><tspan class="cls-4">T</tspan><tspan x="13.41" y="0">erms and </tspan><tspan x="-2.82" y="33.39">Conditions</tspan></text></g><path class="cls-5" d="M265.31,171.42h-9.84V119.69c-.74-.08-1.24-.19-1.75-.19-5.43,0-10.86,0-16.3,0-7.37,0-12.85-5.17-13-12.62-.14-6.43,0-12.86,0-19.29V85.07c-.87,0-1.57-.1-2.27-.1H145.36c-4.67,0-6.38,1.73-6.38,6.49V221.88c0,1.19,0,2.39.05,3.57.23,3.24,2.18,5,5.43,5q32.61,0,65.21,0c1.85,0,2.48.6,2.88,2.28.62,2.55,1.54,5,2.37,7.66a11.36,11.36,0,0,1-1.35.15c-23.07,0-46.13-.18-69.19.07A15.3,15.3,0,0,1,129,225.33q0-21.47,0-42.94,0-45.63,0-91.26a16.5,16.5,0,0,1,3.83-11.21,13.71,13.71,0,0,1,10.81-5h53.88c10.27,0,20.54,0,30.82,0a4.77,4.77,0,0,1,3.94,1.72c10.71,11.84,21.5,23.61,32.23,35.45a3.91,3.91,0,0,1,1,2.4q.07,27.84,0,55.67A11.92,11.92,0,0,1,265.31,171.42Z"/><path class="cls-5" d="M260.05,258.12a37.69,37.69,0,0,1-37.7-37.83c.1-21.06,17.05-37.63,38.39-37.53,20.26.09,37,17.19,37,37.72A37.69,37.69,0,0,1,260.05,258.12Zm-8-32c-.58-.68-1-1.23-1.5-1.78-2.5-3-4.94-6.07-7.49-9a5.84,5.84,0,0,0-8.07-.71,5.48,5.48,0,0,0-.92,8q6.54,8.11,13.32,16.07a5.69,5.69,0,0,0,8.63.17q13.57-14.52,27-29.17a5.19,5.19,0,0,0,1.19-5.36,5.84,5.84,0,0,0-9.93-2.14C270.62,206,267,210,263.38,214Z"/><path class="cls-5" d="M182.71,170.56H160.47c-2.61,0-4.07-1.23-4-3.3s1.48-3.1,4-3.1l43.88,0a14,14,0,0,1,1.59,0,3.17,3.17,0,0,1,3,3.31,3,3,0,0,1-3.22,3.05c-5.3.05-10.59,0-15.89,0Z"/><path class="cls-5" d="M182.73,123.73c-7.41,0-14.82.07-22.23-.06a5.11,5.11,0,0,1-3.43-1.42c-1.66-1.93-.12-4.75,2.61-4.91,2.24-.14,4.5-.07,6.75-.07H204c.46,0,.92,0,1.38,0,2.31.13,3.68,1.39,3.65,3.34s-1.43,3.08-3.82,3.08c-7.48,0-15,0-22.44,0Z"/><path class="cls-5" d="M182.5,147.12c-7.41,0-14.82,0-22.24,0-2.35,0-3.66-1-3.79-2.89-.15-2.07,1.37-3.51,3.84-3.52q13.69,0,27.4,0c5.76,0,11.51,0,17.27,0,2.52,0,4,1.16,4,3.14s-1.35,3.26-3.85,3.28c-7.55,0-15.09,0-22.64,0Z"/></g></g></svg>