<svg xmlns="http://www.w3.org/2000/svg" viewBox="0 0 393.88 393.8"><defs><style>.cls-1{fill:#391e45;}.cls-2,.cls-3{fill:#fff;}.cls-2{opacity:0.18;}.cls-3{font-size:27.83px;font-family:HelveticaNeue-Medium, Helvetica Neue;}.cls-4{letter-spacing:-0.02em;}.cls-5{letter-spacing:-0.02em;}.cls-6{fill:#fffdfd;stroke:#fff;stroke-miterlimit:10;stroke-width:2px;}</style></defs><title>threats_big</title><g id="Layer_2" data-name="Layer 2"><g id="Layer_1-2" data-name="Layer 1"><circle class="cls-1" cx="196.9" cy="196.9" r="196.9"/><path class="cls-2" d="M197,0c108,0,196.9,88.88,196.9,196.9S305,393.8,197,393.8"/><g id="_Group_" data-name="&lt;Group&gt;"><text class="cls-3" transform="translate(93.62 314.4)">Specific Th<tspan class="cls-4" x="143.84" y="0">r</tspan><tspan x="153.13" y="0">eats </tspan><tspan x="22.96" y="33.39">and Haza</tspan><tspan class="cls-5" x="144.09" y="33.39">r</tspan><tspan x="153.39" y="33.39">ds</tspan></text></g><path class="cls-6" d="M196.75,83.35c8.67,0,16.49,5.7,23.46,16.9l61.08,112,.21.22.21.21c4.23,5.91,5.92,10.77,5.92,15.85,0,11.83-9.94,20.92-23,20.92H129.12c-13.31,0-23.24-9.09-23.24-20.92,0-5.08,1.69-9.72,5.91-15.85l.21-.21.22-.22,61.07-111.79q10.47-17.13,23.46-17.12m0-6.34c-11,0-20.92,6.76-28.95,20.07l-61.08,112c-4.65,6.77-7,12.68-7,19.45,0,15.64,13.31,27.26,29.37,27.26H264.38c16.27,0,29.38-11.41,29.38-27.26,0-6.77-2.54-12.68-7-19.45l-61.08-112c-8-13.31-18-20.07-28.95-20.07Z"/><path class="cls-6" d="M187,130.05a9.8,9.8,0,0,1,2.75-7.39,9.94,9.94,0,0,1,13.95,0,9.46,9.46,0,0,1,2.74,8v.63l-6.34,59.39a3.43,3.43,0,0,1-3.38,3.17c-1.48,0-3-1.69-3.17-3.17l-6.76-59.39A2.72,2.72,0,0,1,187,130.05Z"/><circle class="cls-6" cx="196.75" cy="211.63" r="9.93"/></g></g></svg>