<svg xmlns="http://www.w3.org/2000/svg" viewBox="0 0 393.88 393.8"><defs><style>.cls-1{fill:#ff9200;}.cls-2{fill:#ffa400;}.cls-3{font-size:27.83px;fill:#fff;font-family:HelveticaNeue-Medium, Helvetica Neue;}.cls-4{fill:#fffdfd;stroke:#fff;stroke-miterlimit:10;stroke-width:2px;}</style></defs><title>howto_big</title><g id="Layer_2" data-name="Layer 2"><g id="Layer_1-2" data-name="Layer 1"><circle class="cls-1" cx="196.9" cy="196.9" r="196.9"/><path class="cls-2" d="M197,0c108,0,196.9,88.88,196.9,196.9S305,393.8,197,393.8"/><g id="_Group_" data-name="&lt;Group&gt;"><text class="cls-3" transform="translate(132.98 319.4)">Using this <tspan x="37.64" y="33.39">App</tspan></text></g><path class="cls-4" d="M147.28,64.39a11.8,11.8,0,0,0-11.77,11.78V255.1a11.8,11.8,0,0,0,11.77,11.77h98.88a11.8,11.8,0,0,0,11.77-11.77V76.17a11.8,11.8,0,0,0-11.77-11.78Zm0,4.71h98.88a7,7,0,0,1,7.07,7.07V87.94h-113V76.17A7,7,0,0,1,147.28,69.1Zm-7.06,23.55h113V229.2h-113V92.65Zm56.43,25.89a2.44,2.44,0,0,0-1.11.37l-33,18.84a2.33,2.33,0,0,0-1.17,2V177.4a2.34,2.34,0,0,0,1.17,2l33,18.83a2.29,2.29,0,0,0,1,.37,2.41,2.41,0,0,0,1.33-.37l33-18.83a2.35,2.35,0,0,0,1.18-2V139.73a2.34,2.34,0,0,0-1.18-2l-33-18.84A2.53,2.53,0,0,0,196.65,118.54Zm.07,5.08,28.18,16.11-28.18,16.12-28.18-16.12Zm-30.53,20.16,28.18,16.11v32.3l-28.18-16.11Zm61.06,0v32.3l-28.17,16.11v-32.3Zm-87,90.13h113V255.1a7,7,0,0,1-7.07,7.06H147.28a7,7,0,0,1-7.06-7.06Zm56.5,7.06a7.07,7.07,0,1,0,7.06,7.06A7.06,7.06,0,0,0,196.72,241Z"/></g></g></svg>