<svg xmlns="http://www.w3.org/2000/svg" viewBox="0 0 160.12 160.12"><defs><style>.cls-1{fill:#391e45;}.cls-2{fill:#fff;opacity:0.18;}.cls-3{fill:#fffdfd;stroke:#fff;stroke-miterlimit:10;stroke-width:2px;}</style></defs><title>powerloss</title><g id="Layer_2" data-name="Layer 2"><g id="Layer_1-2" data-name="Layer 1"><circle class="cls-1" cx="80.06" cy="80.06" r="80.06"/><path class="cls-2" d="M80.06,0C124,0,160.12,36.14,160.12,80.06S124,160.12,80.06,160.12"/><path class="cls-3" d="M89.17,130.63H71V107.88L57.49,84.21V62.05H65.9V41.91a3.31,3.31,0,1,1,6.61,0V62.05h15.1V41.91a3.31,3.31,0,1,1,6.61,0V62.05h8.41V84.21L89.17,107.88Zm-17-1.27H87.9V107.55l13.46-23.68V63.32H92.94V41.91a2,2,0,0,0-4.06,0V63.32H71.24V41.91a2,2,0,0,0-4.07,0V63.32H58.76V83.87l13.46,23.68Z"/></g></g></svg>