<svg xmlns="http://www.w3.org/2000/svg" viewBox="0 0 51.87 51.89"><defs><style>.cls-1{fill:#606060;}</style></defs><title>web</title><g id="Layer_2" data-name="Layer 2"><g id="Layer_1-2" data-name="Layer 1"><path class="cls-1" d="M27.1,51.89H24.77c-.1,0-.21,0-.31,0A25,25,0,0,1,17,50.29,25.68,25.68,0,0,1,3.53,39,25.18,25.18,0,0,1,.15,28.72L0,27.12V24.8a2.89,2.89,0,0,0,0-.29,24.28,24.28,0,0,1,.87-5.36A25.53,25.53,0,0,1,14.19,2.85,25.19,25.19,0,0,1,31.66.67a25.25,25.25,0,0,1,14,8.43,25.41,25.41,0,0,1,6.14,14.7A24.88,24.88,0,0,1,51,32.48,25.64,25.64,0,0,1,40.18,47.63,25.17,25.17,0,0,1,28.7,51.74C28.17,51.8,27.63,51.84,27.1,51.89ZM13.85,24.21H24.17V17.33H15a.21.21,0,0,0-.25.2c-.22,1.32-.47,2.64-.66,4C14,22.37,13.93,23.28,13.85,24.21Zm10.34,3.5H13.87a1.28,1.28,0,0,0,0,.21,38.41,38.41,0,0,0,.85,6.41c0,.21.13.28.35.28h9.11Zm3.49,6.88h9.18c.17,0,.22-.07.26-.22a37.11,37.11,0,0,0,.76-4.91c0-.58.08-1.17.12-1.77H27.68ZM38,24.21a38.09,38.09,0,0,0-.86-6.6c-.05-.22-.12-.3-.36-.3H27.69v6.89ZM15.81,13.84h8.38V3.75l-.32.1A8,8,0,0,0,21.5,5.17C18.68,7.43,17.08,10.5,15.81,13.84ZM36,38.08H27.68V48.17l.39-.12a9.52,9.52,0,0,0,3.55-2.42,20,20,0,0,0,4-6.45C35.77,38.82,35.9,38.46,36,38.08Zm-11.85,0H15.84a22.44,22.44,0,0,0,3.3,6.25,11.94,11.94,0,0,0,3.55,3.2c.47.25,1,.44,1.5.68ZM36,13.84a.35.35,0,0,0,0-.12c-.18-.46-.34-.92-.54-1.38a19.69,19.69,0,0,0-3.83-6A9.47,9.47,0,0,0,28,3.86l-.35-.1V13.84ZM11.25,34.59a41.06,41.06,0,0,1-.84-6.87H3.54a2.36,2.36,0,0,0,0,.39,22.53,22.53,0,0,0,1.5,6.22.36.36,0,0,0,.4.28h5.79Zm30.2-6.89a42.09,42.09,0,0,1-.84,6.9h5.81a.35.35,0,0,0,.38-.27A22.56,22.56,0,0,0,48.2,29c.06-.42.09-.85.14-1.29ZM11.24,17.34l-.11,0H5.36a.24.24,0,0,0-.26.19,22.26,22.26,0,0,0-1.44,5.42c-.06.43-.09.85-.14,1.3h6.56c.26,0,.33-.06.35-.33.14-1.52.29-3,.46-4.55C11,18.69,11.12,18,11.24,17.34Zm37.07,6.88a.84.84,0,0,0,0-.1c0-.1,0-.2,0-.29a22.62,22.62,0,0,0-1.52-6.28.33.33,0,0,0-.36-.24H40.62a42.24,42.24,0,0,1,.84,6.89ZM16.16,5.71A22.81,22.81,0,0,0,7,13.85h4.85a.39.39,0,0,0,.44-.32A26.92,26.92,0,0,1,14.71,8C15.16,7.25,15.65,6.51,16.16,5.71ZM44.88,38.06H40.05a.39.39,0,0,0-.46.32A27.49,27.49,0,0,1,36,45.76l-.28.4A22.29,22.29,0,0,0,44.88,38.06ZM7,38.08a23.12,23.12,0,0,0,4,4.71,22.3,22.3,0,0,0,5.15,3.42l0-.11a26.81,26.81,0,0,1-3.88-7.79.31.31,0,0,0-.35-.25H7.3ZM35.69,5.7c0,.08,0,.1,0,.12a27.06,27.06,0,0,1,3.88,7.79.31.31,0,0,0,.35.25h4.6l.31,0A22.77,22.77,0,0,0,35.69,5.7Z"/></g></g></svg>