<svg xmlns="http://www.w3.org/2000/svg" viewBox="0 0 393.8 393.8"><defs><style>.cls-1{fill:#eb1b2d;opacity:0.88;}.cls-2{fill:#ed5a55;}.cls-3{fill:#fffdfd;stroke:#fff;stroke-miterlimit:10;stroke-width:2px;}.cls-4{font-size:27.83px;fill:#fff;font-family:HelveticaNeue-Medium, Helvetica Neue;}</style></defs><title>emergency_big</title><g id="Layer_2" data-name="Layer 2"><g id="Layer_1-2" data-name="Layer 1"><circle class="cls-1" cx="196.9" cy="196.9" r="196.9"/><path class="cls-2" d="M196.9,0c108,0,196.9,88.88,196.9,196.9S304.92,393.8,196.9,393.8"/><path class="cls-3" d="M195.6,58.92a2.46,2.46,0,0,0-2.15,2.54v39.36a2.46,2.46,0,0,0,4.92.07V61.46A2.46,2.46,0,0,0,196,58.91,2.67,2.67,0,0,0,195.6,58.92Zm-59,39.36a2.47,2.47,0,0,0-2.21,2.69,2.53,2.53,0,0,0,.75,1.54l19.68,19.68a2.48,2.48,0,1,0,3.54-3.46h0L138.64,99.05A2.46,2.46,0,0,0,136.56,98.28Zm118.3,0a2.47,2.47,0,0,0-1.69.77L233.5,118.73a2.47,2.47,0,1,0,3.53,3.46l19.68-19.68a2.46,2.46,0,0,0-1.85-4.23Zm-59,39.43c-25.87,0-46.74,21.21-46.74,47.43v31.29H134.41a1.77,1.77,0,0,0-.46,0,2.45,2.45,0,0,0-2,2.46v32H112.27a1.77,1.77,0,0,0-.46,0,2.47,2.47,0,1,0,.46,4.91H279.54a2.46,2.46,0,0,0,.07-4.91H259.86v-32a2.46,2.46,0,0,0-2.46-2.46H242.64V185.14C242.64,158.92,221.78,137.71,195.91,137.71Zm0,4.92c23.18,0,41.81,18.89,41.81,42.51v31.29H154.09V185.14C154.09,161.52,172.72,142.63,195.91,142.63Zm0,12.3c-14.95,0-29.52,11.78-29.52,27.06a2.46,2.46,0,1,0,4.92.07V182c0-12.05,12.29-22.14,24.6-22.14a2.46,2.46,0,0,0,.07-4.92Zm-96.4,2.46a2.47,2.47,0,0,0,.46,4.92h39.36a2.46,2.46,0,1,0,.07-4.92H99.51Zm152.51,0a2.47,2.47,0,0,0,.46,4.92h39.36a2.46,2.46,0,0,0,.07-4.92H252Zm-115.15,64H254.94v29.52H136.87Z"/><g id="_Group_" data-name="&lt;Group&gt;"><text class="cls-4" transform="translate(123.94 310.73)">Emergency <tspan x="13.94" y="33.39">Numbers</tspan></text></g></g></g></svg>