<svg xmlns="http://www.w3.org/2000/svg" viewBox="0 0 160.12 160.12"><defs><style>.cls-1{opacity:0.88;}.cls-2{fill:#eb1b2d;}.cls-3{fill:#ed5a55;}.cls-4{fill:#fffdfd;stroke:#fff;stroke-miterlimit:10;stroke-width:2px;}</style></defs><title>fire</title><g id="Layer_2" data-name="Layer 2"><g id="Layer_1-2" data-name="Layer 1"><g class="cls-1"><circle class="cls-2" cx="80.06" cy="80.06" r="80.06"/><path class="cls-3" d="M80.06,0C124,0,160.12,36.14,160.12,80.06S124,160.12,80.06,160.12"/></g><path class="cls-4" d="M77.88,31.86c-.82,0-1,.66-1.13,1.1C72.39,50.73,64.89,61,58.34,69.61S46,85.49,46,96.71c0,15.93,11.53,29.68,25.29,29.68a1.1,1.1,0,0,0,1.1-1.1c0-.8-.77-1.15-1.1-1.41a12.31,12.31,0,0,1-4.4-8.48c0-3.25,1.22-5.19,2.61-7.63A21.05,21.05,0,0,0,72,100.25a38.07,38.07,0,0,1,5.94,10,1.17,1.17,0,0,0,2,.11S84.63,100,83.69,88.67c7.39,7.1,10.68,14.08,10.68,20.13a22.21,22.21,0,0,1-5.5,14.87c-.45.51-1.1,1-1.1,1.62a1.1,1.1,0,0,0,1.1,1.1c8.08,0,15-4,19.82-9.72a31.62,31.62,0,0,0,7.66-20c0-21.66-7.74-42-36.61-63.75C79,32.44,78.62,31.86,77.88,31.86Zm.55,3c28.4,21.45,35.72,40.78,35.72,61.9A29.66,29.66,0,0,1,107,115.26a24.29,24.29,0,0,1-15.49,8.62,24.49,24.49,0,0,0,5-15.08c0-7.48-4.15-15.83-13.57-23.94a1.16,1.16,0,0,0-1.79,1,39.11,39.11,0,0,1-2.37,21A26.21,26.21,0,0,0,72,97a1.16,1.16,0,0,0-1.82.86,16.07,16.07,0,0,1-2.61,8.9c-1.36,2.39-2.89,4.87-2.89,8.69A13.58,13.58,0,0,0,68,123.78c-10.85-2-19.82-13.55-19.82-27.07,0-10.48,5.25-17.06,11.85-25.76C66.44,62.53,73.92,52.07,78.43,34.81Z"/></g></g></svg>