<svg xmlns="http://www.w3.org/2000/svg" viewBox="0 0 160.12 160.2"><defs><style>.cls-1{opacity:0.88;}.cls-2{fill:#7ac095;}.cls-3{fill:#5ac28f;}.cls-4{fill:#fffdfd;}</style></defs><title>mental</title><g id="Layer_2" data-name="Layer 2"><g id="Layer_1-2" data-name="Layer 1"><g class="cls-1"><circle class="cls-2" cx="80.06" cy="80.14" r="80.06"/><path class="cls-2" d="M80.06.08C36.14.08,0,36.22,0,80.14S36.14,160.2,80.06,160.2"/></g><path class="cls-3" d="M80.06,0C36.14,0,0,36.14,0,80.06s36.14,80.06,80.06,80.06"/><path class="cls-4" d="M124.86,72.52a11.21,11.21,0,0,0-6.6-10.2A13.7,13.7,0,0,0,106,50.82a10.35,10.35,0,0,0-9.3-5.8h0c-.5,0-1,.1-1.5.1h-.1a9.36,9.36,0,0,0-1.6.4,11.47,11.47,0,0,0-7.1-2.6,10.27,10.27,0,0,0-5.9,1.8,14.48,14.48,0,0,0-5.9-1.2,14.12,14.12,0,0,0-10.7,4.8,11.53,11.53,0,0,0-2.6-.3,10.23,10.23,0,0,0-8.8,4.9h-.9c-.2,0-.4.1-.6.1s-.3.1-.5.1a1.42,1.42,0,0,0-.6.2c-.2,0-.3.1-.5.1s-.4.1-.5.2-.4.1-.5.2-.3.1-.4.2l-.6.3h0a12.13,12.13,0,0,0-6.2,9.8v.1a16.2,16.2,0,0,0,11.2,27.9,26.35,26.35,0,0,0,2.8-.2,16,16,0,0,0,3.8.7c2.6,6.4,7.8,9.8,14.9,9.8,6.8,0,15,6.9,15,15v1.5h11.4l-1.3-9.3a16.29,16.29,0,0,0,17.4-12.2,20,20,0,0,0,.5-4.1,12.1,12.1,0,0,0,8-11.3,11.17,11.17,0,0,0-1-4.8A12.78,12.78,0,0,0,124.86,72.52Zm-4.3,5.4a8.3,8.3,0,0,1,1,4.1,8.68,8.68,0,0,1-5.1,7.9,16.28,16.28,0,0,0-11.8-12.2,1.65,1.65,0,0,0-.8,3.2,12.78,12.78,0,0,1,9.7,11.2,13.68,13.68,0,0,1-.3,4.5,12.94,12.94,0,0,1-15.8,9.4l-2.3-.6,1.4,10.2H92c-1-9.4-10.4-16.7-18.2-16.7q-8.1,0-11.4-6.6a.37.37,0,0,0-.1-.3,7.11,7.11,0,0,1,3.4-9.5,1.66,1.66,0,1,0-1.4-3,10.43,10.43,0,0,0-5.9,9.5,11,11,0,0,1-2.6-.6l-.4-.2-.4.1a10.9,10.9,0,0,1-2.6.3,13,13,0,0,1-13-13,12.65,12.65,0,0,1,2.3-7.3,11.85,11.85,0,0,0,8.3,7.8,4.71,4.71,0,0,0-.6,1.5,6.79,6.79,0,0,0,.8,5.2,1.6,1.6,0,0,0,1.4.8,1.88,1.88,0,0,0,.8-.2,1.66,1.66,0,0,0,.6-2.2,3.64,3.64,0,0,1-.4-2.7,3.56,3.56,0,0,1,1.6-2.2,1.66,1.66,0,0,0,.6-2.2,1.62,1.62,0,0,0-1.8-.7,8.82,8.82,0,0,1-8.6-8.7,8.71,8.71,0,0,1,8.7-8.7h.2l1.3.1.5-1a7.06,7.06,0,0,1,6.4-4,8,8,0,0,1,2.6.5l1.1.4.7-1a11.08,11.08,0,0,1,8.9-4.4,12.19,12.19,0,0,1,5.3,1.3l1,.5.8-.7a7.07,7.07,0,0,1,4.6-1.7,6.67,6.67,0,0,1,3.9,1.2,10.33,10.33,0,0,0-4,8.1,1.6,1.6,0,0,0,3.2,0,7.15,7.15,0,0,1,3.6-6.2l.5-.2a8.19,8.19,0,0,1,3-.7,7.23,7.23,0,0,1,6.7,4.7l.4,1.1h1.1a10.44,10.44,0,0,1,10.3,9.6l.1,1.1,1,.3a8,8,0,0,1,5.4,7.5,7.21,7.21,0,0,1-1,3.8l-.4.8Zm-34.4,8.3a9.08,9.08,0,0,0-4-7.5h0a13.89,13.89,0,0,1-7.9-10.8,1.32,1.32,0,1,1,2.6-.4,11.43,11.43,0,0,0,7.6,9.3,11.68,11.68,0,0,0,8.8-.5,11.14,11.14,0,0,0,5.8-6.6,1.33,1.33,0,1,1,2.5.9,13.54,13.54,0,0,1-7.2,8,14.34,14.34,0,0,1-6.1,1.4,6.15,6.15,0,0,1-1.3-.1,11.84,11.84,0,0,1,1.8,6.2,1.32,1.32,0,0,1-1.3,1.3A1.24,1.24,0,0,1,86.16,86.22Zm24.7-15a1.3,1.3,0,0,1-2.6,0,10.71,10.71,0,0,0-10.7-10.7,1.3,1.3,0,1,1,0-2.6A13.36,13.36,0,0,1,110.86,71.22Zm-34.4-13.4a1.32,1.32,0,0,1,1.3-1.3,10.39,10.39,0,0,1,10.4,10.4,1.3,1.3,0,0,1-2.6,0,7.81,7.81,0,0,0-7.8-7.8A1.32,1.32,0,0,1,76.46,57.82Zm-3.1,29.7a1.25,1.25,0,0,1-1.1.6,1.85,1.85,0,0,1-.7-.2,1.3,1.3,0,0,1-.4-1.8,7.47,7.47,0,0,0-2.4-10.3,1.3,1.3,0,1,1,1.4-2.2A10.17,10.17,0,0,1,73.36,87.52Zm-1.2-23a7.69,7.69,0,0,1-5.2-2.2,12.12,12.12,0,0,1-15.9,3.5,1.32,1.32,0,0,1,1.3-2.3,9.53,9.53,0,0,0,13-3.5,8.53,8.53,0,0,1-.8-3.5,1.3,1.3,0,1,1,2.6,0,5.21,5.21,0,0,0,5,5.3,1.32,1.32,0,0,1,1.3,1.3,1.29,1.29,0,0,1-1.3,1.4Zm30.5,25.4a1.28,1.28,0,0,1,.3,1.8,12.92,12.92,0,0,1-10.6,5.6,12.69,12.69,0,0,1-7.2-2.2,1.29,1.29,0,0,1,1.5-2.1,10.49,10.49,0,0,0,7.7,1.6,10.2,10.2,0,0,0,6.6-4.3A1.17,1.17,0,0,1,102.66,89.92Z"/></g></g></svg>