<svg xmlns="http://www.w3.org/2000/svg" viewBox="0 0 39.76 50.79"><defs><style>.cls-1{fill:#606060;}</style></defs><title>phone</title><g id="Layer_2" data-name="Layer 2"><g id="Layer_1-2" data-name="Layer 1"><path class="cls-1" d="M1.5,22.19c-2.76-9-2.26-18,6.14-21.11l2.74-1a2.21,2.21,0,0,1,2.81,1.36l3.38,9.67a2.67,2.67,0,0,1-1.22,3.13S13,15.57,11.06,16.54s-3.61,2.29,3.21,13.05C21,40.06,22.88,39.1,24.56,37.78s3.87-2.93,3.87-2.93a2.67,2.67,0,0,1,3.35.23l7.32,7.16a2.2,2.2,0,0,1,0,3.12l-2,2.08c-6.36,6.29-14.78,2.9-21.72-3.41A49.13,49.13,0,0,1,7,34,52,52,0,0,1,1.5,22.19Z"/></g></g></svg>